<svg xmlns="http://www.w3.org/2000/svg" width="1200" height="360" viewBox="0 0 1200 360" role="img" aria-label="AI Engineering from Scratch — reference manual banner">
  <defs>
    <pattern id="paper" x="0" y="0" width="16" height="16" patternUnits="userSpaceOnUse">
      <circle cx="0" cy="0" r="1" fill="#1a1a1a" fill-opacity="0.08"/>
    </pattern>
    <pattern id="paperRule" x="0" y="0" width="100" height="6" patternUnits="userSpaceOnUse">
      <rect width="4" height="3" fill="#3553ff"/>
      <rect x="8" y="3" width="6" height="3" fill="#3553ff" fill-opacity="0.35"/>
    </pattern>
    <style>
      .face { fill: rgba(53, 83, 255, 0.06); }
      .face-strong { fill: rgba(53, 83, 255, 0.18); }
      .stroke-bp { stroke: #3553ff; fill: none; stroke-linejoin: miter; stroke-linecap: square; }
      .mono { font-family: 'JetBrains Mono', ui-monospace, Consolas, monospace; }
      .display { font-family: 'VT323', ui-monospace, monospace; font-weight: 400; }
      .serif { font-family: 'Source Serif 4', Georgia, serif; }
    </style>
  </defs>

  <rect width="1200" height="360" fill="#fafaf5"/>
  <rect width="1200" height="360" fill="url(#paper)"/>

  <g class="mono" font-size="11" letter-spacing="2.4" fill="#3553ff">
    <text x="48" y="44">FIG_000  —  REFERENCE MANUAL  V1.0</text>
  </g>
  <g class="mono" font-size="11" letter-spacing="2.4" fill="#7a7a78" text-anchor="end">
    <text x="1152" y="44">© 2026  ·  OPEN SOURCE  ·  MIT LICENSE</text>
  </g>

  <g transform="translate(48, 96)">
    <text class="display" x="0" y="80" font-size="96" letter-spacing="2" fill="#3553ff">AI  ENGINEERING</text>
    <text class="display" x="0" y="172" font-size="96" letter-spacing="2" fill="#1a1a1a">FROM  SCRATCH.</text>
  </g>

  <g class="serif" font-size="16" fill="#1a1a1a">
    <text x="48" y="296">A reference manual for people who want to design and build AI systems from first principles.</text>
  </g>
  <g class="mono" font-size="11" letter-spacing="2" fill="#7a7a78">
    <text x="48" y="320">20 PHASES  ·  280+ LESSONS  ·  PYTHON · TYPESCRIPT · RUST · JULIA</text>
  </g>

  <g transform="translate(820, 100)">
    <g class="mono" font-size="9" letter-spacing="2" fill="#3553ff">
      <text x="0" y="-8">FIG_000.A  —  CURRICULUM STACK</text>
    </g>

    <g transform="translate(56, 168)">
      <polygon class="face-strong" points="0,0 160,-46 280,-22 120,24"/>
      <polygon class="stroke-bp" stroke-width="1.4" points="0,0 160,-46 280,-22 120,24"/>
      <text class="mono" x="20" y="14" font-size="9" letter-spacing="1.6" fill="#3553ff">AGENTS · SWARMS · PRODUCTION</text>
    </g>
    <g transform="translate(48, 142)">
      <polygon class="face" points="0,0 160,-46 280,-22 120,24"/>
      <polygon class="stroke-bp" stroke-width="1.4" points="0,0 160,-46 280,-22 120,24"/>
      <text class="mono" x="20" y="14" font-size="9" letter-spacing="1.6" fill="#3553ff">LLMS · TRANSFORMERS · MULTIMODAL</text>
    </g>
    <g transform="translate(40, 116)">
      <polygon class="face" points="0,0 160,-46 280,-22 120,24"/>
      <polygon class="stroke-bp" stroke-width="1.4" points="0,0 160,-46 280,-22 120,24"/>
      <text class="mono" x="20" y="14" font-size="9" letter-spacing="1.6" fill="#3553ff">VISION · SPEECH · NLP</text>
    </g>
    <g transform="translate(32, 90)">
      <polygon class="face" points="0,0 160,-46 280,-22 120,24"/>
      <polygon class="stroke-bp" stroke-width="1.4" points="0,0 160,-46 280,-22 120,24"/>
      <text class="mono" x="20" y="14" font-size="9" letter-spacing="1.6" fill="#3553ff">DEEP LEARNING · RL</text>
    </g>
    <g transform="translate(24, 64)">
      <polygon class="face" points="0,0 160,-46 280,-22 120,24"/>
      <polygon class="stroke-bp" stroke-width="1.4" points="0,0 160,-46 280,-22 120,24"/>
      <text class="mono" x="20" y="14" font-size="9" letter-spacing="1.6" fill="#3553ff">ML FUNDAMENTALS</text>
    </g>
    <g transform="translate(16, 38)">
      <polygon class="face" points="0,0 160,-46 280,-22 120,24"/>
      <polygon class="stroke-bp" stroke-width="1.4" points="0,0 160,-46 280,-22 120,24"/>
      <text class="mono" x="20" y="14" font-size="9" letter-spacing="1.6" fill="#3553ff">MATH FOUNDATIONS</text>
    </g>
    <g transform="translate(8, 12)">
      <polygon class="face" points="0,0 160,-46 280,-22 120,24"/>
      <polygon class="stroke-bp" stroke-width="1.4" points="0,0 160,-46 280,-22 120,24"/>
      <text class="mono" x="20" y="14" font-size="9" letter-spacing="1.6" fill="#3553ff">SETUP &amp; TOOLING</text>
    </g>

    <g class="stroke-bp" stroke-width="0.8" stroke-dasharray="3 3">
      <line x1="312" y1="-12" x2="372" y2="-12"/>
      <line x1="304" y1="14" x2="372" y2="14"/>
      <line x1="296" y1="40" x2="372" y2="40"/>
      <line x1="288" y1="66" x2="372" y2="66"/>
      <line x1="280" y1="92" x2="372" y2="92"/>
      <line x1="272" y1="118" x2="372" y2="118"/>
      <line x1="264" y1="144" x2="372" y2="144"/>
    </g>
    <g class="mono" font-size="9" letter-spacing="2" fill="#7a7a78">
      <text x="382" y="-9">PHASE 00</text>
      <text x="382" y="17">PHASE 01</text>
      <text x="382" y="43">PHASE 02 · 03 · 09</text>
      <text x="382" y="69">PHASE 04 · 05 · 06</text>
      <text x="382" y="95">PHASE 07 · 08 · 12</text>
      <text x="382" y="121">PHASE 10 · 11 · 13</text>
      <text x="382" y="147">PHASE 14–19</text>
    </g>
  </g>

  <rect x="0" y="354" width="1200" height="6" fill="url(#paperRule)"/>
</svg>
